<svg xmlns="http://www.w3.org/2000/svg" viewBox="0 0 64 64">
  <defs>
    <linearGradient id="bg" x1="0" y1="0" x2="1" y2="1">
      <stop offset="0" stop-color="#0F172A"/>
      <stop offset="1" stop-color="#0B1020"/>
    </linearGradient>
    <linearGradient id="gradA" x1="0" y1="0" x2="1" y2="1">
      <stop offset="0" stop-color="#FF5E7E"/>
      <stop offset="0.5" stop-color="#FFAE3D"/>
      <stop offset="1" stop-color="#FFDA3D"/>
    </linearGradient>
    <linearGradient id="gradB" x1="0" y1="1" x2="1" y2="0">
      <stop offset="0" stop-color="#25C2FF"/>
      <stop offset="0.5" stop-color="#7A5CFF"/>
      <stop offset="1" stop-color="#FF5EF6"/>
    </linearGradient>
    <filter id="soft" x="-50%" y="-50%" width="200%" height="200%">
      <feGaussianBlur stdDeviation="1.2"/>
    </filter>
  </defs>
  <rect width="64" height="64" rx="14" fill="url(#bg)"/>
  <g transform="translate(8,8)">
    <!-- brazo izquierdo de la X (calido) -->
    <path d="M12 36 C 6 30, 6 22, 14 16 C 18 13, 22 12, 26 12 L 28 16 C 24 16, 20 18, 17 21 C 12 26, 12 32, 16 36 Z" fill="url(#gradA)"/>
    <!-- brazo derecho de la X (frio) -->
    <path d="M36 36 C 40 30, 40 22, 32 16 C 28 13, 24 12, 20 12 L 18 16 C 22 16, 26 18, 29 21 C 34 26, 34 32, 30 36 Z" fill="url(#gradB)"/>
    <!-- intersección brillante -->
    <circle cx="28" cy="16" r="2.2" fill="#FFFFFF" filter="url(#soft)"/>
    <circle cx="28" cy="16" r="1" fill="#FFFFFF"/>
  </g>
</svg>
