<svg xmlns="http://www.w3.org/2000/svg" viewBox="0 0 64 64">
  <defs>
    <linearGradient id="g" x1="0" y1="0" x2="1" y2="1">
      <stop offset="0" stop-color="#6D28D9"/>
      <stop offset="1" stop-color="#2563EB"/>
    </linearGradient>
  </defs>
  <rect width="64" height="64" rx="14" fill="url(#g)"/>
  <g fill="#fff">
    <path d="M20 41c-4 0-7-3-7-9s3-9 7-9c3 0 5 1 6 3l-3 2c-1-1-2-2-3-2-2 0-3 2-3 6s1 6 3 6c1 0 2-1 3-2l3 2c-1 2-3 3-6 3z"/>
    <path d="M44 41c-5 0-9-4-9-10s4-10 9-10c3 0 5 1 7 3l-3 2c-1-1-2-2-4-2-3 0-5 3-5 7s2 7 5 7c2 0 3-1 4-2l3 2c-2 2-4 3-7 3z"/>
  </g>
</svg>
